<?xml version="1.0" encoding="UTF-8" standalone="no"?>
<!DOCTYPE svg PUBLIC "-//W3C//DTD SVG 1.1//EN" "http://www.w3.org/Graphics/SVG/1.1/DTD/svg11.dtd">
<svg width="100%" height="100%" viewBox="0 0 445 428" version="1.1" xmlns="http://www.w3.org/2000/svg" xmlns:xlink="http://www.w3.org/1999/xlink" xml:space="preserve" xmlns:serif="http://www.serif.com/" style="fill-rule:evenodd;clip-rule:evenodd;stroke-linejoin:round;stroke-miterlimit:2;">
    <g transform="matrix(1,0,0,1,-75.0793,-1540.34)">
        <g transform="matrix(1,0,0,1,181.157,1960.33)">
            <text x="0px" y="0px" style="font-family:'Sajola-Bold', 'Sajola';font-weight:700;font-size:600px;fill:rgb(248,171,82);">B</text>
        </g>
        <g transform="matrix(0.374453,-0.46383,0.440733,0.355807,-585.457,1144.7)">
            <path d="M100.418,1464.52C50.353,1533.26 18.035,1598.09 14.206,1664.87C10.376,1731.65 35.035,1800.4 98.923,1876.99L100.418,1464.52ZM100.418,1464.52C150.482,1533.26 182.8,1598.09 186.63,1664.87C190.459,1731.65 165.801,1800.4 101.912,1876.99L100.418,1464.52Z" style="fill:rgb(248,171,82);"/>
        </g>
        <g transform="matrix(-0.292096,-0.602242,0.536653,-0.260285,-681.527,2309.36)">
            <path d="M100.418,1464.52C50.353,1533.26 18.035,1598.09 14.206,1664.87C10.376,1731.65 35.035,1800.4 98.923,1876.99L100.418,1464.52ZM100.418,1464.52C150.482,1533.26 182.8,1598.09 186.63,1664.87C190.459,1731.65 165.801,1800.4 101.912,1876.99L100.418,1464.52Z" style="fill:rgb(248,171,82);"/>
        </g>
    </g>
</svg>
